<?xml version="1.0" standalone="no"?>
<!DOCTYPE svg PUBLIC "-//W3C//DTD SVG 20010904//EN"
 "http://www.w3.org/TR/2001/REC-SVG-20010904/DTD/svg10.dtd">
<svg version="1.0" xmlns="http://www.w3.org/2000/svg"
 width="750.000000pt" height="781.000000pt" viewBox="0 0 750.000000 781.000000"
 preserveAspectRatio="xMidYMid meet">

<g transform="translate(0.000000,781.000000) scale(0.100000,-0.100000)"
fill="#000000" stroke="none">
<path d="M4500 7750 c0 -5 7 -10 16 -10 8 0 12 5 9 10 -3 6 -10 10 -16 10 -5
0 -9 -4 -9 -10z"/>
<path d="M4550 7730 c8 -5 20 -10 25 -10 6 0 3 5 -5 10 -8 5 -19 10 -25 10 -5
0 -3 -5 5 -10z"/>
<path d="M4123 7666 c-40 -17 -73 -35 -73 -39 0 -5 10 -5 22 -1 34 11 148 64
148 69 0 10 -27 2 -97 -29z"/>
<path d="M3950 7590 c0 -5 4 -10 9 -10 6 0 13 5 16 10 3 6 -1 10 -9 10 -9 0
-16 -4 -16 -10z"/>
<path d="M4740 7586 c0 -9 73 -47 84 -43 6 2 -9 14 -33 25 -47 23 -51 24 -51
18z"/>
<path d="M4893 7523 c9 -2 23 -2 30 0 6 3 -1 5 -18 5 -16 0 -22 -2 -12 -5z"/>
<path d="M4998 7513 c7 -3 16 -2 19 1 4 3 -2 6 -13 5 -11 0 -14 -3 -6 -6z"/>
<path d="M5058 7513 c7 -3 16 -2 19 1 4 3 -2 6 -13 5 -11 0 -14 -3 -6 -6z"/>
<path d="M3393 7409 c-18 -5 -35 -18 -38 -29 -4 -11 -10 -20 -14 -20 -5 0 -26
-21 -47 -47 -37 -45 -37 -47 -9 -26 17 11 39 31 50 43 11 12 40 33 65 46 71
37 79 44 50 43 -14 0 -39 -5 -57 -10z"/>
<path d="M5030 7381 c0 -14 40 -59 72 -82 27 -20 29 -20 20 -3 -12 23 -92 96
-92 85z"/>
<path d="M3382 7196 c-11 -15 -23 -26 -28 -26 -11 0 -84 -79 -84 -91 0 -5 12
1 27 14 79 66 93 80 93 92 0 7 6 15 13 18 6 2 9 7 6 11 -4 4 -16 -4 -27 -18z"/>
<path d="M3231 7154 c-41 -46 -49 -64 -32 -64 11 0 84 100 78 106 -3 3 -23
-16 -46 -42z"/>
<path d="M3640 7045 c-7 -16 -14 -40 -16 -51 -1 -12 -12 -42 -23 -67 -12 -25
-21 -52 -21 -60 0 -14 -20 -27 -41 -27 -5 0 -9 12 -9 28 0 15 -5 34 -10 42 -7
12 -10 8 -10 -15 -1 -34 -21 -113 -33 -133 -15 -23 -21 -162 -8 -162 7 0 9 5
6 10 -3 6 -3 20 0 31 5 16 9 18 15 9 5 -7 6 -19 3 -27 -3 -7 0 -13 6 -13 6 0
12 7 12 15 3 29 4 33 12 42 5 4 7 -10 5 -32 -4 -37 -7 -41 -43 -53 -41 -13
-69 -38 -59 -54 3 -4 15 -3 27 3 18 9 20 9 10 -2 -18 -18 -16 -34 2 -19 10 9
15 9 15 1 0 -26 27 -7 61 42 30 43 45 54 80 64 36 10 48 20 66 53 12 23 19 48
16 56 -3 7 0 14 6 14 6 0 11 -9 11 -20 0 -19 15 -25 48 -21 7 1 19 -15 28 -36
59 -149 83 -171 85 -75 1 31 1 77 -1 101 -3 58 15 45 23 -16 3 -26 17 -70 31
-98 27 -54 34 -48 12 12 -7 21 -18 54 -24 73 -13 42 -17 214 -6 289 5 37 4 52
-3 48 -13 -8 -55 -139 -60 -187 -8 -73 -13 -52 -8 33 3 48 2 87 -2 87 -5 0
-18 -16 -31 -36 -19 -29 -28 -35 -47 -30 -20 5 -26 2 -31 -19 -3 -13 -29 -48
-57 -76 -48 -49 -51 -50 -65 -33 -17 23 -9 125 15 187 8 23 17 53 18 67 1 14
6 33 10 42 4 10 5 23 2 30 -3 8 -10 0 -17 -17z m-125 -234 c3 -5 1 -12 -5 -16
-5 -3 -10 1 -10 9 0 18 6 21 15 7z m2 -113 c-3 -8 -6 -5 -6 6 -1 11 2 17 5 13
3 -3 4 -12 1 -19z"/>
<path d="M3219 7028 c-17 -24 -18 -29 -6 -19 18 14 42 51 33 51 -3 0 -15 -15
-27 -32z"/>
<path d="M3512 6980 c0 -19 2 -27 5 -17 2 9 2 25 0 35 -3 9 -5 1 -5 -18z"/>
<path d="M4240 6832 c-18 -91 -39 -184 -46 -205 -17 -47 -18 -71 -4 -62 6 4
17 2 24 -4 11 -9 15 -5 18 19 3 16 1 30 -3 30 -18 0 -18 39 0 77 11 22 28 71
37 109 24 99 34 101 34 5 0 -69 5 -95 30 -158 17 -41 30 -93 30 -115 0 -23 3
-38 7 -35 10 11 5 164 -8 225 -8 42 -13 51 -24 42 -17 -14 -25 28 -25 134 0
69 -3 83 -19 93 -17 11 -20 2 -51 -155z"/>
<path d="M4218 6938 c-18 -39 -32 -79 -47 -133 -25 -89 -31 -256 -8 -218 13
21 81 372 74 380 -3 2 -11 -11 -19 -29z"/>
<path d="M4875 6902 c-12 -8 -28 -34 -52 -82 -9 -19 -19 -37 -22 -40 -31 -28
-35 -117 -5 -106 8 3 14 1 14 -4 0 -6 5 -10 10 -10 6 0 10 7 10 15 0 8 4 15 9
15 7 0 23 67 20 86 0 4 3 10 9 13 5 3 14 28 21 55 12 48 6 72 -14 58z m-9 -85
c-1 -8 -9 -26 -19 -40 -9 -15 -17 -32 -18 -39 0 -7 -4 -4 -8 7 -5 11 -5 22 0
25 4 3 12 18 18 33 11 28 31 38 27 14z"/>
<path d="M4640 6848 c0 -16 5 -28 10 -28 13 0 13 20 0 40 -8 12 -10 9 -10 -12z"/>
<path d="M5012 6808 c-6 -26 -12 -56 -12 -67 0 -56 -82 -248 -111 -259 -5 -2
-9 -10 -9 -18 0 -8 -9 -33 -21 -55 -11 -23 -18 -47 -15 -55 3 -8 1 -14 -5 -14
-6 0 -7 -5 -3 -11 4 -7 16 0 33 20 28 33 47 41 37 16 -3 -8 -1 -27 5 -42 l10
-27 12 24 c7 14 18 25 24 25 20 0 27 15 25 53 -2 20 1 48 7 62 10 25 10 25 10
2 1 -13 11 -37 24 -53 21 -29 22 -38 18 -162 -2 -73 -5 -159 -5 -192 -1 -33
-4 -62 -8 -65 -3 -3 -16 -50 -27 -105 -11 -55 -24 -112 -30 -127 -13 -35 1
-37 19 -3 20 38 28 30 18 -17 -14 -66 -14 -67 -3 -68 6 -1 12 9 15 22 4 17 14
24 35 26 37 4 78 49 131 147 9 17 30 47 46 67 15 20 44 71 64 114 19 42 37 75
39 72 2 -2 7 -30 10 -63 3 -32 7 -60 9 -62 2 -3 7 22 10 54 10 95 26 175 47
223 11 25 23 75 27 112 l8 67 -35 -31 c-20 -17 -40 -42 -44 -55 -6 -15 -17
-23 -32 -23 -27 0 -36 29 -34 115 2 73 -4 90 -38 119 -17 14 -33 26 -36 26 -3
0 -5 -17 -4 -38 1 -25 -6 -49 -21 -69 -12 -17 -22 -38 -22 -46 0 -9 -4 -19
-10 -22 -6 -4 -10 11 -11 37 -1 41 -1 42 -10 13 -5 -16 -14 -55 -21 -85 -7
-30 -17 -54 -23 -54 -5 1 -13 24 -17 50 -4 27 -15 91 -24 142 -10 54 -14 115
-11 147 4 42 2 55 -9 59 -9 3 -13 9 -11 13 2 5 1 31 -2 58 l-6 50 -13 -47z"/>
<path d="M4021 6803 c-18 -19 -27 -176 -13 -223 7 -25 10 -29 11 -13 1 20 5
22 32 16 l31 -6 -7 44 c-4 24 -11 52 -16 61 -5 9 -9 38 -9 65 0 59 -9 77 -29
56z m27 -149 c-10 -10 -28 6 -28 24 0 15 1 15 17 -1 9 -9 14 -19 11 -23z"/>
<path d="M4439 6793 c0 -10 0 -46 1 -80 1 -57 -1 -64 -22 -72 -20 -8 -23 -15
-22 -59 0 -48 3 -54 67 -121 38 -40 68 -65 71 -58 2 7 5 2 5 -10 1 -12 6 -25
11 -28 11 -7 14 15 10 93 -1 28 1 52 4 52 10 0 36 -71 36 -98 0 -37 22 -103
33 -99 15 5 57 106 46 112 -5 4 -9 -1 -9 -10 0 -9 -6 -15 -12 -13 -8 3 -16 34
-20 79 -4 41 -13 85 -20 99 l-12 25 -4 -27 c-2 -16 -8 -28 -13 -28 -13 0 -31
49 -23 62 3 5 -3 19 -13 31 -11 12 -23 30 -26 40 -4 10 -11 15 -17 12 -10 -6
-35 41 -45 88 -6 30 -25 37 -26 10z"/>
<path d="M4646 6773 c-4 -12 -2 -31 3 -42 6 -11 11 -38 11 -60 0 -23 5 -41 10
-41 13 0 12 31 -4 105 -10 47 -14 55 -20 38z"/>
<path d="M4097 6683 c-7 -99 -2 -152 14 -168 8 -7 9 -4 4 13 -4 13 -2 29 5 37
10 12 10 18 0 30 -9 10 -11 40 -8 95 3 44 2 80 -2 80 -4 0 -10 -39 -13 -87z"/>
<path d="M4965 6748 c-4 -13 -12 -26 -18 -30 -7 -4 -8 -14 -1 -29 10 -21 12
-19 23 25 12 49 9 77 -4 34z"/>
<path d="M3266 6744 c-7 -15 -16 -195 -19 -359 0 -11 5 -39 10 -62 6 -24 7
-43 2 -43 -5 0 -9 6 -9 14 0 8 -4 18 -10 21 -6 4 -7 -1 -4 -12 5 -16 4 -16
-10 1 -9 11 -17 25 -17 30 -1 6 -5 -5 -9 -24 -6 -30 -8 -26 -10 30 -1 36 -4
81 -7 100 -2 19 -4 78 -5 130 l-1 95 -12 -50 c-7 -27 -18 -63 -24 -78 -6 -16
-11 -43 -12 -60 -1 -54 -17 0 -18 61 -1 28 -5 52 -11 52 -13 0 -13 0 5 -150
10 -86 20 -129 31 -140 15 -14 16 -13 9 8 -4 13 -2 22 4 22 6 0 11 9 11 19 0
11 5 23 10 26 6 4 10 -11 10 -39 0 -45 36 -128 81 -185 22 -27 22 -27 9 18 -7
25 -7 32 1 24 7 -7 12 -31 13 -55 1 -24 4 -47 7 -53 4 -5 10 -26 14 -45 18
-82 75 -136 75 -70 0 16 5 30 10 30 6 0 10 20 10 45 0 25 5 45 10 45 6 0 10 7
10 15 0 8 -6 15 -12 15 -10 0 -10 2 0 9 11 6 11 18 1 62 -6 30 -11 89 -10 131
0 42 -3 79 -7 82 -5 3 -14 -17 -21 -44 -18 -72 -36 -71 -63 3 -13 34 -21 67
-19 72 7 17 0 287 -8 308 -7 20 -8 20 -15 1z m21 -416 c-3 -8 -6 -5 -6 6 -1
11 2 17 5 13 3 -3 4 -12 1 -19z"/>
<path d="M3084 6706 c3 -27 6 -59 6 -72 0 -13 5 -24 10 -24 16 0 12 85 -6 116
l-16 29 6 -49z"/>
<path d="M3707 6670 c3 -11 7 -20 9 -20 2 0 4 9 4 20 0 11 -4 20 -9 20 -5 0
-7 -9 -4 -20z"/>
<path d="M4920 6645 c0 -14 -7 -40 -16 -56 -8 -17 -13 -33 -11 -35 6 -6 47 77
47 94 0 6 -4 14 -10 17 -6 4 -10 -5 -10 -20z"/>
<path d="M3688 6615 c-3 -14 -1 -25 3 -25 5 0 9 11 9 25 0 14 -2 25 -4 25 -2
0 -6 -11 -8 -25z"/>
<path d="M4846 6625 c-3 -8 -1 -15 4 -15 6 0 10 7 10 15 0 8 -2 15 -4 15 -2 0
-6 -7 -10 -15z"/>
<path d="M3981 6598 c0 -9 -4 -25 -7 -35 -5 -17 -5 -17 6 0 6 10 9 25 7 35 -4
15 -5 15 -6 0z"/>
<path d="M3741 6579 c-14 -5 -31 -7 -38 -5 -7 3 -13 1 -13 -4 0 -11 43 -13 78
-4 23 7 31 24 10 23 -7 0 -24 -5 -37 -10z"/>
<path d="M3574 6566 c-3 -8 -2 -21 2 -28 5 -7 7 -22 6 -33 -2 -18 -2 -19 8 -2
6 9 16 14 22 11 7 -5 9 -2 5 9 -3 8 1 21 9 28 18 14 11 22 -22 26 -15 2 -27
-2 -30 -11z"/>
<path d="M4130 6560 c0 -5 5 -10 10 -10 6 0 10 5 10 10 0 6 -4 10 -10 10 -5 0
-10 -4 -10 -10z"/>
<path d="M3670 6524 c0 -8 5 -12 10 -9 6 4 8 11 5 16 -9 14 -15 11 -15 -7z"/>
<path d="M5442 6515 c0 -16 2 -22 5 -12 2 9 2 23 0 30 -3 6 -5 -1 -5 -18z"/>
<path d="M4702 6505 c0 -16 2 -22 5 -12 2 9 2 23 0 30 -3 6 -5 -1 -5 -18z"/>
<path d="M4760 6490 c-22 -25 -34 -47 -32 -61 2 -13 0 -19 -7 -15 -6 4 -11 17
-11 28 0 12 -3 18 -7 14 -4 -4 -6 -26 -5 -49 2 -23 -4 -55 -13 -71 -22 -42
-19 -41 22 4 38 41 63 51 63 26 0 -22 27 -68 34 -58 3 6 2 22 -4 37 -6 16 -6
24 0 20 5 -3 16 11 25 31 19 45 19 55 0 30 -17 -23 -18 -16 -6 38 18 75 -6 86
-59 26z m37 -102 c-3 -8 -6 -5 -6 6 -1 11 2 17 5 13 3 -3 4 -12 1 -19z"/>
<path d="M3232 6445 c0 -16 2 -22 5 -12 2 9 2 23 0 30 -3 6 -5 -1 -5 -18z"/>
<path d="M4840 6460 c0 -5 5 -10 10 -10 6 0 10 5 10 10 0 6 -4 10 -10 10 -5 0
-10 -4 -10 -10z"/>
<path d="M3814 6385 c-23 -7 -54 -21 -69 -31 l-27 -17 29 -16 c49 -27 218 -57
228 -41 3 5 14 6 25 3 14 -4 22 2 30 21 6 16 17 26 29 26 34 0 36 -22 5 -49
-17 -14 -22 -22 -11 -18 10 4 34 7 53 7 36 0 49 25 19 36 -8 3 -17 14 -20 24
-3 11 -30 31 -60 45 -61 29 -159 33 -231 10z m145 -24 c9 -6 10 -11 2 -15 -15
-10 -53 3 -46 15 8 11 26 11 44 0z m-80 -23 c12 -31 0 -41 -32 -29 -31 12 -32
14 -11 35 21 22 33 20 43 -6z m101 -35 c0 -10 -6 -13 -16 -9 -9 3 -20 6 -25 6
-5 0 -9 4 -9 9 0 5 11 9 25 9 15 0 25 -6 25 -15z"/>
<path d="M4818 6291 c-9 -15 -15 -17 -25 -9 -16 13 -42 -15 -43 -44 0 -25 -32
-38 -94 -38 -30 0 -58 -5 -61 -10 -9 -15 37 -29 58 -18 25 13 38 1 31 -28 -5
-18 -2 -24 11 -24 13 0 16 6 12 21 -5 17 -1 20 21 17 24 -3 27 -7 27 -43 0
-64 38 -59 81 12 11 17 13 17 34 -7 15 -17 20 -33 16 -52 -6 -30 7 -39 46 -31
27 5 48 35 29 41 -5 2 -8 9 -5 15 6 18 -45 77 -67 77 -10 0 -20 4 -23 9 -4 5
-29 12 -56 16 l-51 7 41 44 c22 24 40 48 40 54 0 16 -9 12 -22 -9z"/>
<path d="M4290 5591 c0 -12 37 -24 50 -16 20 12 10 25 -20 25 -16 0 -30 -4
-30 -9z"/>
<path d="M4061 5561 c-25 -16 6 -21 40 -6 l34 14 -30 0 c-16 1 -36 -3 -44 -8z"/>
<path d="M4180 5539 c54 -25 67 -28 128 -34 34 -4 65 -11 68 -16 3 -5 13 -9
22 -9 14 0 14 3 -3 20 -14 13 -45 22 -95 30 -41 5 -91 12 -110 15 -33 5 -33 4
-10 -6z"/>
<path d="M6321 5393 c-19 -3 -40 -11 -48 -19 -8 -8 -21 -14 -28 -14 -21 0 -28
-19 -14 -36 7 -9 20 -12 33 -8 20 6 21 6 3 -14 -12 -13 -15 -22 -8 -27 6 -3
11 -14 11 -24 0 -33 18 -39 72 -25 28 8 53 16 57 19 3 3 0 19 -6 35 -7 18 -8
32 -2 36 18 11 -2 24 -29 19 l-27 -5 25 12 c14 6 27 13 28 14 9 6 -11 44 -21
42 -7 0 -27 -3 -46 -5z m32 -30 c-7 -2 -19 -2 -25 0 -7 3 -2 5 12 5 14 0 19
-2 13 -5z m-33 -43 c0 -5 -4 -10 -10 -10 -5 0 -10 5 -10 10 0 6 5 10 10 10 6
0 10 -4 10 -10z m46 -35 c11 -29 -2 -37 -19 -11 -15 23 -16 26 -2 26 9 0 18
-7 21 -15z m-36 -25 c0 -13 -28 -25 -38 -16 -3 4 0 11 8 16 20 13 30 12 30 0z"/>
<path d="M6065 5347 c-11 -7 -24 -16 -28 -22 -6 -6 -10 -6 -14 3 -7 17 -23 15
-23 -3 0 -8 -6 -15 -12 -15 -7 0 -4 -7 7 -16 17 -13 18 -17 6 -36 -11 -17 -11
-22 1 -29 11 -7 10 -11 -2 -18 -18 -12 -8 -24 14 -15 9 3 16 14 16 24 0 19 19
30 51 30 12 0 19 -7 19 -20 0 -14 -7 -20 -21 -20 -12 0 -17 -4 -13 -11 4 -7
20 -8 43 -4 42 8 66 25 33 25 -15 0 -20 5 -16 15 4 8 12 15 20 15 17 0 18 17
2 23 -10 4 -10 6 0 6 7 1 12 14 12 31 0 17 -6 32 -12 34 -39 12 -65 13 -83 3z
m46 -63 c6 -8 2 -13 -12 -17 -18 -5 -20 -2 -15 16 3 12 6 29 7 37 1 9 3 7 6
-5 3 -11 9 -25 14 -31z m29 31 c0 -8 -4 -15 -10 -15 -5 0 -10 7 -10 15 0 8 5
15 10 15 6 0 10 -7 10 -15z m-83 -38 c-6 -20 -27 -19 -27 2 0 14 5 19 15 14 9
-3 14 -10 12 -16z"/>
<path d="M6617 5297 c-4 -16 -19 -40 -33 -54 -19 -19 -21 -24 -7 -21 21 4 56
62 51 85 -3 13 -6 10 -11 -10z"/>
<path d="M5831 5259 c-24 -19 -28 -34 -8 -26 17 6 47 -12 31 -19 -6 -3 -20
-11 -30 -19 -17 -13 -18 -14 -1 -15 9 0 17 -8 17 -17 0 -40 15 -48 59 -33 42
14 45 17 35 44 -8 22 -24 20 -24 -3 0 -18 -33 -35 -44 -23 -17 16 -4 42 26 50
40 10 47 28 12 27 -15 0 -29 6 -31 13 -3 7 4 12 16 12 31 0 25 17 -8 22 -17 3
-37 -2 -50 -13z"/>
<path d="M5772 5229 c2 -6 8 -10 13 -10 5 0 11 4 13 10 2 6 -4 11 -13 11 -9 0
-15 -5 -13 -11z"/>
<path d="M5530 5210 c0 -5 14 -10 30 -10 17 0 30 -3 30 -6 0 -18 -24 -44 -40
-44 -11 0 -20 -5 -20 -11 0 -7 9 -9 21 -6 19 5 21 3 16 -29 -8 -45 6 -43 26 4
l15 37 7 -33 c4 -18 11 -35 16 -38 12 -7 59 7 59 18 0 6 -11 7 -26 4 -23 -6
-25 -4 -22 21 2 22 9 29 31 31 15 2 27 8 27 14 0 7 -16 8 -45 4 -41 -7 -45 -5
-45 13 0 20 13 25 58 24 6 -1 12 3 12 8 0 5 -34 9 -75 9 -43 0 -75 -4 -75 -10z"/>
<path d="M5775 5190 c-8 -13 4 -32 16 -25 12 8 12 35 0 35 -6 0 -13 -4 -16
-10z"/>
<path d="M6416 5180 c-11 -3 -15 -9 -10 -13 10 -6 42 9 34 16 -3 3 -14 1 -24
-3z"/>
<path d="M6458 5160 c-15 -9 -15 -13 5 -49 12 -22 25 -37 30 -34 4 3 4 10 -1
16 -14 18 -21 57 -11 57 5 0 9 -6 9 -12 1 -17 28 -53 35 -46 7 7 -28 71 -40
75 -6 1 -17 -2 -27 -7z"/>
<path d="M5796 5144 c-4 -9 -4 -19 -2 -21 8 -8 26 8 26 23 0 19 -16 18 -24 -2z"/>
<path d="M6345 5149 c-11 -17 1 -21 15 -4 8 9 8 15 2 15 -6 0 -14 -5 -17 -11z"/>
<path d="M6100 5111 c-23 -6 -25 -12 -27 -69 -1 -34 2 -62 8 -62 10 0 13 18
10 72 -2 33 0 37 29 43 40 9 50 -4 50 -63 0 -49 21 -66 48 -37 16 17 16 17 -5
12 -21 -5 -22 -1 -25 52 -3 54 -4 56 -33 58 -16 1 -41 -2 -55 -6z"/>
<path d="M6403 5109 c-25 -9 -31 -35 -10 -42 17 -6 47 11 47 28 0 20 -11 24
-37 14z m17 -19 c0 -5 -4 -10 -10 -10 -5 0 -10 5 -10 10 0 6 5 10 10 10 6 0
10 -4 10 -10z"/>
<path d="M6614 5091 c-4 -19 -25 -50 -50 -75 -50 -51 -108 -70 -168 -56 -23 5
-35 5 -29 -1 14 -14 92 -17 131 -5 50 15 108 73 121 120 6 22 8 42 6 45 -3 2
-8 -10 -11 -28z"/>
<path d="M6311 5101 c-15 -10 -8 -76 10 -87 18 -11 19 1 3 31 -10 19 -11 32
-4 39 12 12 39 -20 40 -49 0 -16 2 -17 9 -6 6 9 3 26 -7 47 -18 35 -28 40 -51
25z"/>
<path d="M5947 5083 c-4 -4 -18 -8 -30 -8 -32 -2 -88 -38 -84 -55 2 -9 12 -14
25 -13 25 3 30 -12 7 -21 -14 -5 -5 -30 30 -84 1 -1 15 3 31 9 16 6 38 12 49
13 17 1 20 8 20 53 1 51 0 52 -25 46 -22 -6 -24 -5 -11 10 12 15 11 17 -5 18
-11 0 -14 3 -6 6 7 3 20 -1 28 -8 14 -11 15 -10 12 11 -3 24 -27 38 -41 23z
m27 -105 c8 -30 7 -38 -1 -38 -11 0 -32 48 -25 55 11 10 20 5 26 -17z m-34
-28 c0 -13 -28 -25 -38 -16 -3 4 0 11 8 16 20 13 30 12 30 0z"/>
<path d="M5620 5018 c-21 -9 -22 -12 -7 -15 9 -3 17 -11 17 -19 0 -8 -8 -14
-17 -14 -17 -1 -17 -1 0 -11 9 -5 17 -14 17 -19 0 -6 -8 -10 -17 -10 -17 -1
-17 -1 0 -14 9 -7 17 -16 17 -19 0 -3 -8 -7 -17 -10 -17 -4 -17 -4 0 -12 21
-9 48 11 41 29 -3 8 5 17 18 21 l23 8 -22 4 c-31 6 -29 23 1 23 32 0 40 -14
21 -33 -19 -20 -19 -27 0 -27 8 0 15 -7 15 -15 0 -17 6 -18 35 -5 17 7 17 9 3
9 -22 1 -24 31 -3 31 23 0 18 17 -7 25 l-23 8 23 4 c26 5 30 23 5 24 -11 0
-13 3 -5 6 22 9 13 33 -13 33 -18 0 -25 -5 -25 -19 0 -24 -39 -35 -47 -13 -4
9 -1 18 5 20 16 5 15 22 0 21 -7 0 -24 -5 -38 -11z"/>
<path d="M6330 4955 c0 -8 2 -15 4 -15 2 0 6 7 10 15 3 8 1 15 -4 15 -6 0 -10
-7 -10 -15z"/>
<path d="M6315 4900 c-8 -24 -74 -80 -95 -80 -9 0 -20 -4 -25 -9 -6 -6 -32
-12 -60 -14 -31 -3 -25 -3 16 -2 56 2 73 7 113 34 43 30 88 91 67 91 -5 0 -12
-9 -16 -20z"/>
<path d="M5966 4838 c-17 -13 -52 -24 -90 -28 -33 -4 -50 -8 -36 -10 60 -6
130 11 151 36 19 23 6 24 -25 2z"/>
<path d="M5737 4816 c-37 -33 -136 -64 -160 -49 -6 4 -7 1 -2 -7 10 -16 87 -8
130 14 36 18 75 53 75 66 0 14 0 13 -43 -24z"/>
<path d="M5528 4768 c5 -5 16 -8 23 -6 8 3 3 7 -10 11 -17 4 -21 3 -13 -5z"/>
<path d="M2484 75 c-24 -18 -51 -19 -57 -2 -3 9 -9 9 -25 0 -11 -6 -29 -9 -41
-6 -33 8 -166 -25 -186 -47 -18 -20 -16 -20 221 -20 l239 0 -40 39 c-46 45
-83 57 -111 36z"/>
<path d="M2050 15 c0 -10 10 -15 26 -15 22 0 25 2 14 15 -7 8 -19 15 -26 15
-8 0 -14 -7 -14 -15z"/>
<path d="M3808 3 c7 -3 16 -2 19 1 4 3 -2 6 -13 5 -11 0 -14 -3 -6 -6z"/>
<path d="M4168 3 c6 -2 18 -2 25 0 6 3 1 5 -13 5 -14 0 -19 -2 -12 -5z"/>
</g>
</svg>
